<?xml version="1.0" encoding="UTF-8"?>
<svg xmlns="http://www.w3.org/2000/svg" width="800.000" height="600.000" viewBox="0.0 0.0 800.000 600.000" version="1.1">
  <title>Produce by Acme CAD Converter</title>
  <desc>Produce by Acme CAD Converter</desc>
<path d="M15.55 169.76L15.71 167.92M15.71 167.92L16.19 166.13M16.19 166.13L16.97 164.45M16.97 164.45L18.04 162.93M18.04 162.93L19.35 161.62M19.35 161.62L20.86 160.56M20.86 160.56L22.54 159.77M22.54 159.77L24.33 159.29M24.33 159.29L26.18 159.13M26.18 159.13L67.64 159.13M67.64 159.13L67.64 162.32M67.64 162.32L67.64 162.32M67.64 162.32L67.81 164.23M67.81 164.23L68.3 166.08M68.3 166.08L69.11 167.81M69.11 167.81L70.21 169.38M70.21 169.38L71.57 170.74M71.57 170.74L73.13 171.83M73.13 171.83L74.87 172.64M74.87 172.64L76.72 173.14M76.72 173.14L78.63 173.31M78.63 173.31L111.94 173.31M111.94 173.31L111.94 170.12M111.94 170.12L111.94 170.12M111.94 170.12L111.77 168.21M111.77 168.21L111.27 166.36M111.27 166.36L110.46 164.62M110.46 164.62L109.37 163.06M109.37 163.06L108.01 161.7M108.01 161.7L106.44 160.6M106.44 160.6L104.71 159.79M104.71 159.79L102.86 159.3M102.86 159.3L100.95 159.13M100.95 159.13L81.82 159.13M81.82 159.13L81.82 144.96M81.82 144.96L1.37 144.96M1.37 144.96L1.37 455.03M1.37 455.03L308.35 455.03M308.35 455.03L314.73 436.86M314.73 436.86L309.59 436.86M309.59 436.86L309.59 424.16M309.59 424.16L309.59 424.16M309.59 424.16L309.74 423.01M309.74 423.01L310.19 421.95M310.19 421.95L310.89 421.03M310.89 421.03L322.7 409.22M322.7 409.22L330.14 409.22M330.14 409.22L330.14 409.22M330.14 409.22L331.09 409.35M331.09 409.35L331.97 409.74M331.97 409.74L332.72 410.34M332.72 410.34L333.28 411.13M333.28 411.13L333.6 412.03M333.6 412.03L337.58 430.13M337.58 430.13L337.58 436.86M337.58 436.86L332.44 436.86M332.44 436.86L332.44 438.99M332.44 438.99L332.44 438.99M332.44 438.99L332.61 440.09M332.61 440.09L333.12 441.07M333.12 441.07L333.9 441.86M333.9 441.86L334.89 442.36M334.89 442.36L335.98 442.53M335.98 442.53L341.12 442.53M341.12 442.53L341.12 442.53M341.12 442.53L342.22 442.36M342.22 442.36L343.2 441.86M343.2 441.86L343.99 441.07M343.99 441.07L344.49 440.09M344.49 440.09L344.67 438.99M344.67 438.99L344.67 403.2M344.67 403.2L344.67 403.2M344.67 403.2L344.5 401.7M344.5 401.7L344 400.28M344 400.28L343.2 399M343.2 399L342.13 397.94M342.13 397.94L340.85 397.13M340.85 397.13L339.43 396.64M339.43 396.64L337.93 396.47M337.93 396.47L337.93 400.36M337.93 400.36L331.38 400.36M331.38 400.36L331.38 400.36M331.38 400.36L330.23 400.21M330.23 400.21L329.16 399.77M329.16 399.77L328.24 399.07M328.24 399.07L327.54 398.15M327.54 398.15L327.1 397.08M327.1 397.08L326.95 395.94M326.95 395.94L326.95 317.71M326.95 317.71L326.95 317.71M326.95 317.71L327.13 315.19M327.13 315.19L327.67 312.72M327.67 312.72L328.55 310.35M328.55 310.35L329.76 308.13M329.76 308.13L331.28 306.11M331.28 306.11L333.06 304.32M333.06 304.32L335.09 302.8M335.09 302.8L337.31 301.59M337.31 301.59L339.67 300.71M339.67 300.71L342.14 300.17M342.14 300.17L344.67 299.99M344.67 299.99L455.4 299.99M455.4 299.99L455.4 299.99M455.4 299.99L457.93 300.17M457.93 300.17L460.4 300.71M460.4 300.71L462.76 301.59M462.76 301.59L464.98 302.8M464.98 302.8L467.01 304.32M467.01 304.32L468.8 306.11M468.8 306.11L470.31 308.13M470.31 308.13L471.52 310.35M471.52 310.35L472.41 312.72M472.41 312.72L472.94 315.19M472.94 315.19L473.12 317.71M473.12 317.71L473.12 395.94M473.12 395.94L473.12 395.94M473.12 395.94L472.97 397.08M472.97 397.08L472.53 398.15M472.53 398.15L471.83 399.07M471.83 399.07L470.91 399.77M470.91 399.77L469.84 400.21M469.84 400.21L468.69 400.36M468.69 400.36L462.14 400.36M462.14 400.36L462.14 396.47M462.14 396.47L462.14 396.47M462.14 396.47L460.64 396.64M460.64 396.64L459.22 397.13M459.22 397.13L457.94 397.94M457.94 397.94L456.87 399M456.87 399L456.07 400.28M456.07 400.28L455.57 401.7M455.57 401.7L455.4 403.2M455.4 403.2L455.4 438.99M455.4 438.99L455.4 438.99M455.4 438.99L455.58 440.09M455.58 440.09L456.08 441.07M456.08 441.07L456.87 441.86M456.87 441.86L457.85 442.36M457.85 442.36L458.95 442.53M458.95 442.53L464.09 442.53M464.09 442.53L464.09 442.53M464.09 442.53L465.18 442.36M465.18 442.36L466.17 441.86M466.17 441.86L466.95 441.07M466.95 441.07L467.46 440.09M467.46 440.09L467.63 438.99M467.63 438.99L467.63 436.86M467.63 436.86L462.49 436.86M462.49 436.86L462.49 430.13M462.49 430.13L466.47 412.03M466.47 412.03L466.47 412.03M466.47 412.03L466.79 411.13M466.79 411.13L467.35 410.34M467.35 410.34L468.1 409.74M468.1 409.74L468.98 409.35M468.98 409.35L469.93 409.22M469.93 409.22L477.37 409.22M477.37 409.22L489.18 421.03M489.18 421.03L489.18 421.03M489.18 421.03L489.88 421.95M489.88 421.95L490.33 423.01M490.33 423.01L490.48 424.16M490.48 424.16L490.48 436.86M490.48 436.86L485.34 436.86M485.34 436.86L491.72 455.03M491.72 455.03L798.7 455.03M798.7 455.03L798.7 144.96M798.7 144.96L718.25 144.96M718.25 144.96L718.25 159.13M718.25 159.13L699.12 159.13M699.12 159.13L699.12 159.13M699.12 159.13L697.21 159.3M697.21 159.3L695.36 159.79M695.36 159.79L693.63 160.6M693.63 160.6L692.06 161.7M692.06 161.7L690.7 163.06M690.7 163.06L689.61 164.62M689.61 164.62L688.8 166.36M688.8 166.36L688.3 168.21M688.3 168.21L688.13 170.12M688.13 170.12L688.13 173.31M688.13 173.31L721.44 173.31M721.44 173.31L721.44 173.31M721.44 173.31L723.35 173.14M723.35 173.14L725.2 172.64M725.2 172.64L726.94 171.83M726.94 171.83L728.5 170.74M728.5 170.74L729.86 169.38M729.86 169.38L730.96 167.81M730.96 167.81L731.77 166.08M731.77 166.08L732.26 164.23M732.26 164.23L732.43 162.32M732.43 162.32L732.43 159.13M732.43 159.13L773.89 159.13M773.89 159.13L773.89 159.13M773.89 159.13L775.74 159.29M775.74 159.29L777.53 159.77M777.53 159.77L779.21 160.56M779.21 160.56L780.72 161.62M780.72 161.62L782.03 162.93M782.03 162.93L783.1 164.45M783.1 164.45L783.88 166.13M783.88 166.13L784.36 167.92M784.36 167.92L784.52 169.76M784.52 169.76L784.52 430.22M784.52 430.22L784.52 430.22M784.52 430.22L784.36 432.07M784.36 432.07L783.88 433.86M783.88 433.86L783.1 435.54M783.1 435.54L782.03 437.05M782.03 437.05L780.72 438.36M780.72 438.36L779.21 439.43M779.21 439.43L777.53 440.21M777.53 440.21L775.74 440.69M775.74 440.69L773.89 440.85M773.89 440.85L644.85 440.85M644.85 440.85L644.85 440.85M644.85 440.85L643.82 440.7M643.82 440.7L642.88 440.25M642.88 440.25L642.11 439.55M642.11 439.55L641.58 438.65M641.58 438.65L641.33 437.64M641.33 437.64L641.38 436.6M641.38 436.6L641.74 435.62M641.74 435.62L641.74 435.62M641.74 435.62L643.1 432.74M643.1 432.74L644.14 429.72M644.14 429.72L644.84 426.61M644.84 426.61L645.2 423.44M645.2 423.44L645.22 420.25M645.22 420.25L644.89 417.08M644.89 417.08L644.21 413.96M644.21 413.96L643.2 410.94M643.2 410.94L641.86 408.04M641.86 408.04L640.21 405.3M640.21 405.3L638.28 402.77M638.28 402.77L636.09 400.45M636.09 400.45L628.3 400.45M628.3 400.45L625.28 405.68M625.28 405.68L625.28 405.68M625.28 405.68L625.06 406.29M625.06 406.29L625.08 406.94M625.08 406.94L625.34 407.54M625.34 407.54L625.79 408.01M625.79 408.01L625.79 408.01M625.79 408.01L627.76 409.65M627.76 409.65L629.46 411.58M629.46 411.58L630.85 413.75M630.85 413.75L631.89 416.1M631.89 416.1L632.56 418.58M632.56 418.58L632.84 421.13M632.84 421.13L632.73 423.7M632.73 423.7L632.24 426.23M632.24 426.23L631.36 428.64M631.36 428.64L630.13 430.9M630.13 430.9L628.56 432.94M628.56 432.94L626.71 434.72M626.71 434.72L624.6 436.19M624.6 436.19L622.3 437.33M622.3 437.33L619.85 438.11M619.85 438.11L617.31 438.5M617.31 438.5L614.73 438.5M614.73 438.5L612.19 438.11M612.19 438.11L609.74 437.33M609.74 437.33L607.44 436.19M607.44 436.19L605.33 434.72M605.33 434.72L603.48 432.94M603.48 432.94L601.91 430.9M601.91 430.9L600.68 428.64M600.68 428.64L599.8 426.23M599.8 426.23L599.31 423.7M599.31 423.7L599.2 421.13M599.2 421.13L599.48 418.58M599.48 418.58L600.15 416.1M600.15 416.1L601.19 413.75M601.19 413.75L602.58 411.58M602.58 411.58L604.28 409.65M604.28 409.65L606.25 408.01M606.25 408.01L606.25 408.01M606.25 408.01L606.71 407.54M606.71 407.54L606.96 406.94M606.96 406.94L606.98 406.29M606.98 406.29L606.76 405.68M606.76 405.68L603.74 400.45M603.74 400.45L595.95 400.45M595.95 400.45L595.95 400.45M595.95 400.45L593.76 402.77M593.76 402.77L591.83 405.3M591.83 405.3L590.18 408.04M590.18 408.04L588.85 410.94M588.85 410.94L587.83 413.96M587.83 413.96L587.16 417.08M587.16 417.08L586.82 420.25M586.82 420.25L586.84 423.44M586.84 423.44L587.2 426.61M587.2 426.61L587.9 429.72M587.9 429.72L588.94 432.74M588.94 432.74L590.3 435.62M590.3 435.62L590.3 435.62M590.3 435.62L590.66 436.6M590.66 436.6L590.72 437.64M590.72 437.64L590.47 438.65M590.47 438.65L589.93 439.55M589.93 439.55L589.16 440.25M589.16 440.25L588.22 440.7M588.22 440.7L587.19 440.85M587.19 440.85L508.2 440.85M508.2 440.85L508.2 440.85M508.2 440.85L507.1 440.68M507.1 440.68L506.11 440.17M506.11 440.17L505.33 439.39M505.33 439.39L504.83 438.4M504.83 438.4L504.65 437.31M504.65 437.31L504.65 424.16M504.65 424.16L504.65 424.16M504.65 424.16L504.51 421.96M504.51 421.96L504.08 419.8M504.08 419.8L503.37 417.71M503.37 417.71L502.39 415.74M502.39 415.74L501.17 413.91M501.17 413.91L499.71 412.25M499.71 412.25L488.6 401.14M488.6 401.14L488.6 401.14M488.6 401.14L487.89 400.22M487.89 400.22L487.45 399.15M487.45 399.15L487.3 398.01M487.3 398.01L487.3 315.94M487.3 315.94L487.3 315.94M487.3 315.94L487.11 312.57M487.11 312.57L486.54 309.24M486.54 309.24L485.61 305.99M485.61 305.99L484.31 302.87M484.31 302.87L482.68 299.91M482.68 299.91L480.73 297.16M480.73 297.16L478.48 294.64M478.48 294.64L475.96 292.39M475.96 292.39L473.2 290.43M473.2 290.43L470.25 288.8M470.25 288.8L467.12 287.51M467.12 287.51L463.88 286.57M463.88 286.57L460.55 286.01M460.55 286.01L457.18 285.82M457.18 285.82L342.89 285.82M342.89 285.82L342.89 285.82M342.89 285.82L339.52 286.01M339.52 286.01L336.19 286.57M336.19 286.57L332.95 287.51M332.95 287.51L329.82 288.8M329.82 288.8L326.87 290.43M326.87 290.43L324.11 292.39M324.11 292.39L321.6 294.64M321.6 294.64L319.34 297.16M319.34 297.16L317.39 299.91M317.39 299.91L315.76 302.87M315.76 302.87L314.46 305.99M314.46 305.99L313.53 309.24M313.53 309.24L312.96 312.57M312.96 312.57L312.77 315.94M312.77 315.94L312.77 398.01M312.77 398.01L312.77 398.01M312.77 398.01L312.62 399.15M312.62 399.15L312.18 400.22M312.18 400.22L311.47 401.14M311.47 401.14L300.36 412.25M300.36 412.25L300.36 412.25M300.36 412.25L298.9 413.91M298.9 413.91L297.68 415.74M297.68 415.74L296.7 417.71M296.7 417.71L295.99 419.8M295.99 419.8L295.56 421.96M295.56 421.96L295.42 424.16M295.42 424.16L295.42 437.31M295.42 437.31L295.42 437.31M295.42 437.31L295.24 438.4M295.24 438.4L294.74 439.39M294.74 439.39L293.96 440.17M293.96 440.17L292.97 440.68M292.97 440.68L291.87 440.85M291.87 440.85L212.88 440.85M212.88 440.85L212.88 440.85M212.88 440.85L211.85 440.7M211.85 440.7L210.91 440.25M210.91 440.25L210.14 439.55M210.14 439.55L209.61 438.65M209.61 438.65L209.35 437.64M209.35 437.64L209.41 436.6M209.41 436.6L209.77 435.62M209.77 435.62L209.77 435.62M209.77 435.62L211.13 432.74M211.13 432.74L212.17 429.72M212.17 429.72L212.87 426.61M212.87 426.61L213.23 423.44M213.23 423.44L213.25 420.25M213.25 420.25L212.91 417.08M212.91 417.08L212.24 413.96M212.24 413.96L211.22 410.94M211.22 410.94L209.89 408.04M209.89 408.04L208.24 405.3M208.24 405.3L206.31 402.77M206.31 402.77L204.12 400.45M204.12 400.45L196.33 400.45M196.33 400.45L193.31 405.68M193.31 405.68L193.31 405.68M193.31 405.68L193.09 406.29M193.09 406.29L193.11 406.94M193.11 406.94L193.36 407.54M193.36 407.54L193.82 408.01M193.82 408.01L193.82 408.01M193.82 408.01L195.79 409.65M195.79 409.65L197.49 411.58M197.49 411.58L198.88 413.75M198.88 413.75L199.92 416.1M199.92 416.1L200.59 418.58M200.59 418.58L200.87 421.13M200.87 421.13L200.76 423.7M200.76 423.7L200.27 426.23M200.27 426.23L199.39 428.64M199.39 428.64L198.16 430.9M198.16 430.9L196.59 432.94M196.59 432.94L194.74 434.72M194.74 434.72L192.63 436.19M192.63 436.19L190.33 437.33M190.33 437.33L187.88 438.11M187.88 438.11L185.34 438.5M185.34 438.5L182.76 438.5M182.76 438.5L180.22 438.11M180.22 438.11L177.77 437.33M177.77 437.33L175.47 436.19M175.47 436.19L173.36 434.72M173.36 434.72L171.51 432.94M171.51 432.94L169.94 430.9M169.94 430.9L168.71 428.64M168.71 428.64L167.83 426.23M167.83 426.23L167.34 423.7M167.34 423.7L167.23 421.13M167.23 421.13L167.51 418.58M167.51 418.58L168.18 416.1M168.18 416.1L169.22 413.75M169.22 413.75L170.61 411.58M170.61 411.58L172.31 409.65M172.31 409.65L174.28 408.01M174.28 408.01L174.28 408.01M174.28 408.01L174.73 407.54M174.73 407.54L174.99 406.94M174.99 406.94L175.01 406.29M175.01 406.29L174.79 405.68M174.79 405.68L171.77 400.45M171.77 400.45L163.98 400.45M163.98 400.45L163.98 400.45M163.98 400.45L161.79 402.77M161.79 402.77L159.86 405.3M159.86 405.3L158.21 408.04M158.21 408.04L156.87 410.94M156.87 410.94L155.86 413.96M155.86 413.96L155.18 417.08M155.18 417.08L154.85 420.25M154.85 420.25L154.87 423.44M154.87 423.44L155.23 426.61M155.23 426.61L155.93 429.72M155.93 429.72L156.97 432.74M156.97 432.74L158.33 435.62M158.33 435.62L158.33 435.62M158.33 435.62L158.69 436.6M158.69 436.6L158.74 437.64M158.74 437.64L158.49 438.65M158.49 438.65L157.96 439.55M157.96 439.55L157.19 440.25M157.19 440.25L156.25 440.7M156.25 440.7L155.22 440.85M155.22 440.85L26.18 440.85M26.18 440.85L26.18 440.85M26.18 440.85L24.33 440.69M24.33 440.69L22.54 440.21M22.54 440.21L20.86 439.43M20.86 439.43L19.35 438.36M19.35 438.36L18.04 437.05M18.04 437.05L16.97 435.54M16.97 435.54L16.19 433.86M16.19 433.86L15.71 432.07M15.71 432.07L15.55 430.22M15.55 430.22L15.55 169.76"
fill="none" stroke="black" stroke-width="0.5"/>
</svg>
